<svg width="177" height="44" viewBox="0 0 177 44" fill="none" xmlns="http://www.w3.org/2000/svg">
<path d="M0.9375 3.01758H9.8584C13.7275 3.01758 16.6465 3.57812 18.6152 4.69922C20.584 5.82031 21.5684 7.75488 21.5684 10.5029C21.5684 11.6514 21.3633 12.6904 20.9531 13.6201C20.5566 14.5361 19.9756 15.2949 19.21 15.8965C18.4443 16.4844 17.501 16.8809 16.3799 17.0859V17.291C17.542 17.4961 18.5742 17.8584 19.4766 18.3779C20.3926 18.8975 21.1104 19.6426 21.6299 20.6133C22.1631 21.584 22.4297 22.8418 22.4297 24.3867C22.4297 26.2188 21.9922 27.7773 21.1172 29.0625C20.2559 30.3477 19.0186 31.3252 17.4053 31.9951C15.8057 32.665 13.9053 33 11.7041 33H0.9375V3.01758ZM5.85938 15.3838H10.5762C12.8047 15.3838 14.3496 15.0215 15.2109 14.2969C16.0723 13.5723 16.5029 12.5127 16.5029 11.1182C16.5029 9.69629 15.9902 8.6709 14.9648 8.04199C13.9531 7.41309 12.3398 7.09863 10.125 7.09863H5.85938V15.3838ZM5.85938 19.3623V28.8779H11.0479C13.3447 28.8779 14.958 28.4336 15.8877 27.5449C16.8174 26.6562 17.2822 25.4531 17.2822 23.9355C17.2822 23.0059 17.0703 22.1992 16.6465 21.5156C16.2363 20.832 15.5596 20.3057 14.6162 19.9365C13.6729 19.5537 12.4014 19.3623 10.8018 19.3623H5.85938ZM47.9209 10.2979V33H44.127L43.4707 29.9443H43.2041C42.7256 30.7236 42.1172 31.373 41.3789 31.8926C40.6406 32.3984 39.8203 32.7744 38.918 33.0205C38.0156 33.2803 37.0654 33.4102 36.0674 33.4102C34.3584 33.4102 32.8955 33.123 31.6787 32.5488C30.4756 31.9609 29.5527 31.0586 28.9102 29.8418C28.2676 28.625 27.9463 27.0527 27.9463 25.125V10.2979H32.7861V24.2227C32.7861 25.9863 33.1416 27.3057 33.8525 28.1807C34.5771 29.0557 35.6982 29.4932 37.2158 29.4932C38.6787 29.4932 39.8408 29.1924 40.7021 28.5908C41.5635 27.9893 42.1719 27.1006 42.5273 25.9248C42.8965 24.749 43.0811 23.3066 43.0811 21.5977V10.2979H47.9209ZM63.2812 29.5137C63.9102 29.5137 64.5322 29.459 65.1475 29.3496C65.7627 29.2266 66.3232 29.083 66.8291 28.9189V32.5693C66.2959 32.8018 65.6055 33 64.7578 33.1641C63.9102 33.3281 63.0283 33.4102 62.1123 33.4102C60.8271 33.4102 59.6719 33.1982 58.6465 32.7744C57.6211 32.3369 56.8076 31.5918 56.2061 30.5391C55.6045 29.4863 55.3037 28.0303 55.3037 26.1709V13.9688H52.207V11.8154L55.5293 10.1133L57.1084 5.25293H60.1436V10.2979H66.6445V13.9688H60.1436V26.1094C60.1436 27.2578 60.4307 28.1123 61.0049 28.6729C61.5791 29.2334 62.3379 29.5137 63.2812 29.5137ZM79.8926 29.5137C80.5215 29.5137 81.1436 29.459 81.7588 29.3496C82.374 29.2266 82.9346 29.083 83.4404 28.9189V32.5693C82.9072 32.8018 82.2168 33 81.3691 33.1641C80.5215 33.3281 79.6396 33.4102 78.7236 33.4102C77.4385 33.4102 76.2832 33.1982 75.2578 32.7744C74.2324 32.3369 73.4189 31.5918 72.8174 30.5391C72.2158 29.4863 71.915 28.0303 71.915 26.1709V13.9688H68.8184V11.8154L72.1406 10.1133L73.7197 5.25293H76.7549V10.2979H83.2559V13.9688H76.7549V26.1094C76.7549 27.2578 77.042 28.1123 77.6162 28.6729C78.1904 29.2334 78.9492 29.5137 79.8926 29.5137ZM97.0986 9.86719C99.1221 9.86719 100.858 10.2842 102.308 11.1182C103.757 11.9521 104.871 13.1348 105.65 14.666C106.43 16.1973 106.819 18.0293 106.819 20.1621V22.7461H91.6641C91.7188 24.9473 92.3066 26.6426 93.4277 27.832C94.5625 29.0215 96.1484 29.6162 98.1855 29.6162C99.6348 29.6162 100.934 29.4795 102.082 29.2061C103.244 28.9189 104.44 28.502 105.671 27.9551V31.8721C104.536 32.4053 103.381 32.7949 102.205 33.041C101.029 33.2871 99.6211 33.4102 97.9805 33.4102C95.752 33.4102 93.79 32.9795 92.0947 32.1182C90.4131 31.2432 89.0938 29.9443 88.1367 28.2217C87.1934 26.499 86.7217 24.3594 86.7217 21.8027C86.7217 19.2598 87.1523 17.0996 88.0137 15.3223C88.875 13.5449 90.085 12.1914 91.6436 11.2617C93.2021 10.332 95.0205 9.86719 97.0986 9.86719ZM97.0986 13.4971C95.5811 13.4971 94.3506 13.9893 93.4072 14.9736C92.4775 15.958 91.9307 17.4004 91.7666 19.3008H102.103C102.089 18.166 101.897 17.1611 101.528 16.2861C101.173 15.4111 100.626 14.7275 99.8877 14.2354C99.1631 13.7432 98.2334 13.4971 97.0986 13.4971ZM123.759 9.86719C124.142 9.86719 124.559 9.8877 125.01 9.92871C125.461 9.96973 125.851 10.0244 126.179 10.0928L125.728 14.6045C125.44 14.5225 125.085 14.4609 124.661 14.4199C124.251 14.3789 123.882 14.3584 123.554 14.3584C122.692 14.3584 121.872 14.502 121.093 14.7891C120.313 15.0625 119.623 15.4863 119.021 16.0605C118.42 16.6211 117.948 17.3252 117.606 18.1729C117.265 19.0205 117.094 20.0049 117.094 21.126V33H112.254V10.2979H116.027L116.684 14.2969H116.909C117.36 13.4902 117.921 12.752 118.591 12.082C119.261 11.4121 120.026 10.8789 120.888 10.4824C121.763 10.0723 122.72 9.86719 123.759 9.86719ZM141.724 13.9688H136.207V33H131.388V13.9688H127.676V11.6514L131.388 10.2363V8.65723C131.388 6.72949 131.688 5.19824 132.29 4.06348C132.905 2.92871 133.78 2.11523 134.915 1.62305C136.063 1.11719 137.431 0.864258 139.017 0.864258C140.056 0.864258 141.006 0.953125 141.867 1.13086C142.729 1.29492 143.453 1.48633 144.041 1.70508L142.79 5.35547C142.325 5.20508 141.806 5.06836 141.231 4.94531C140.657 4.80859 140.042 4.74023 139.386 4.74023C138.292 4.74023 137.485 5.08203 136.966 5.76562C136.46 6.44922 136.207 7.44727 136.207 8.75977V10.2979H141.724V13.9688ZM150.419 33H145.579V1.08984H150.419V33ZM153.864 10.2979H159.114L163.77 23.2588C163.975 23.8467 164.159 24.4277 164.323 25.002C164.501 25.5625 164.651 26.1162 164.774 26.6631C164.911 27.21 165.021 27.7568 165.103 28.3037H165.226C165.362 27.5928 165.554 26.7998 165.8 25.9248C166.06 25.0361 166.347 24.1475 166.661 23.2588L171.132 10.2979H176.32L166.579 36.1172C166.019 37.5938 165.328 38.8516 164.508 39.8906C163.701 40.9434 162.744 41.7363 161.637 42.2695C160.529 42.8164 159.265 43.0898 157.843 43.0898C157.159 43.0898 156.564 43.0488 156.059 42.9668C155.553 42.8984 155.122 42.8232 154.767 42.7412V38.8857C155.054 38.9541 155.416 39.0156 155.854 39.0703C156.291 39.125 156.742 39.1523 157.207 39.1523C158.068 39.1523 158.813 38.9814 159.442 38.6396C160.071 38.2979 160.604 37.8125 161.042 37.1836C161.479 36.5684 161.842 35.8643 162.129 35.0713L162.929 32.9385L153.864 10.2979Z" fill="white"/>
</svg>
